<svg width="33" height="32" viewBox="0 0 33 32" fill="none" xmlns="http://www.w3.org/2000/svg">
<path d="M9.00003 28C6.7064 28 5.09837 27.6612 4.17593 26.9837C3.24518 26.3061 2.86707 25.1388 3.04158 23.4816L3.41554 19.9796C3.48202 19.3592 3.37399 18.8735 3.09144 18.5225C2.80889 18.1714 2.40169 17.9224 1.86984 17.7755C1.32967 17.6367 0.706401 17.5673 3.0723e-05 17.5673L3.0723e-05 14.4327C0.698091 14.4327 1.3172 14.3592 1.85737 14.2122C2.39754 14.0735 2.80889 13.8286 3.09144 13.4776C3.37399 13.1265 3.48202 12.6408 3.41554 12.0204L3.04158 8.54286C2.85045 6.86939 3.22441 5.69388 4.16347 5.01633C5.09421 4.33878 6.7064 4 9.00003 4L9.00003 6.69388C8.23549 6.69388 7.6413 6.8 7.21748 7.01225C6.79366 7.21633 6.61499 7.62857 6.68147 8.24898L7.0679 11.8612C7.16762 12.7837 7.0679 13.5225 6.76873 14.0776C6.46125 14.6408 5.99588 15.0694 5.37261 15.3633C4.74934 15.6653 4.01804 15.8776 3.1787 16C4.0679 16.1306 4.82413 16.3429 5.4474 16.6367C6.06236 16.9306 6.51111 17.3551 6.79366 17.9102C7.07621 18.4735 7.16762 19.2163 7.0679 20.1388L6.68147 23.751C6.61499 24.3714 6.79781 24.7837 7.22995 24.9878C7.65377 25.2 8.2438 25.3061 9.00003 25.3061L9.00003 28Z" fill="black"/>
<path d="M23 4C25.2936 4 26.9017 4.33878 27.8241 5.01633C28.7549 5.69388 29.133 6.86122 28.9585 8.51837L28.5845 12.0204C28.518 12.6408 28.6261 13.1265 28.9086 13.4775C29.1912 13.8286 29.5984 14.0776 30.1302 14.2245C30.6704 14.3633 31.2936 14.4327 32 14.4327V17.5673C31.302 17.5673 30.6828 17.6408 30.1427 17.7878C29.6025 17.9265 29.1912 18.1714 28.9086 18.5224C28.6261 18.8735 28.518 19.3592 28.5845 19.9796L28.9585 23.4571C29.1496 25.1306 28.7756 26.3061 27.8366 26.9837C26.9058 27.6612 25.2936 28 23 28V25.3061C23.7646 25.3061 24.3587 25.2 24.7826 24.9878C25.2064 24.7837 25.3851 24.3714 25.3186 23.751L24.9321 20.1388C24.8324 19.2163 24.9321 18.4775 25.2313 17.9224C25.5388 17.3592 26.0042 16.9306 26.6274 16.6367C27.2507 16.3347 27.982 16.1224 28.8213 16C27.9321 15.8694 27.1759 15.6571 26.5526 15.3633C25.9377 15.0694 25.4889 14.6449 25.2064 14.0898C24.9238 13.5265 24.8324 12.7837 24.9321 11.8612L25.3186 8.24898C25.3851 7.62857 25.2022 7.21633 24.7701 7.01224C24.3463 6.8 23.7562 6.69388 23 6.69388V4Z" fill="black"/>
<path d="M24 16.404C24 18.3324 23.75 19.9226 23.2498 21.1746C22.7586 22.4266 22.0887 23.4045 21.2402 24.1082C20.3917 24.8028 19.4271 25.2917 18.3464 25.575C17.2747 25.8583 16.1627 26 15.0106 26H10V7H14.689C15.8769 7 17.0246 7.12795 18.1321 7.38384C19.2485 7.63059 20.2444 8.09211 21.1196 8.7684C22.0039 9.43555 22.705 10.386 23.223 11.6198C23.741 12.8444 24 14.4392 24 16.404ZM19.445 16.404C19.445 14.695 19.2619 13.4019 18.8957 12.5245C18.5385 11.6472 18.0472 11.0531 17.422 10.7424C16.8058 10.4226 16.1091 10.2626 15.3321 10.2626H14.3943V22.7511H15.3321C16.1448 22.7511 16.8594 22.5729 17.4756 22.2165C18.0919 21.8509 18.5742 21.2066 18.9225 20.2836C19.2708 19.3605 19.445 18.0673 19.445 16.404Z" fill="url(#paint0_linear_6_60)"/>
<path d="M0 6.10352e-05C0.49999 4.50006 -1.25074 8.99948 2.49998 12.0001C6.25071 15.0006 10.6957 16.0001 16 16.0001C21.3043 16.0001 25.2493 15.5006 29 12.5001C32.7507 9.49948 32 4.24352 32 6.10352e-05H0Z" fill="url(#paint1_linear_6_60)" fill-opacity="0.25"/>
<defs>
<linearGradient id="paint0_linear_6_60" x1="16.7706" y1="1.49603" x2="16.7706" y2="34.3536" gradientUnits="userSpaceOnUse">
<stop stop-color="#4411FF"/>
<stop offset="1" stop-color="#70A9FF"/>
</linearGradient>
<linearGradient id="paint1_linear_6_60" x1="16" y1="6.10352e-05" x2="16" y2="16.0001" gradientUnits="userSpaceOnUse">
<stop stop-color="white"/>
<stop offset="1" stop-color="white"/>
</linearGradient>
</defs>
</svg>
