<svg width="40" height="32" viewBox="0 0 40 32" fill="none" xmlns="http://www.w3.org/2000/svg">
<g id="play-icon">
<path id="second-triangle" d="M37 14.2679C38.3333 15.0378 38.3333 16.9623 37 17.7321L19 28.1244C17.6667 28.8942 16 27.9319 16 26.3923L16 5.60769C16 4.06809 17.6667 3.10584 19 3.87564L37 14.2679Z" fill="url(#paint0_linear_5_28)"/>
<path id="first-triangle" d="M29 14.2679C30.3333 15.0378 30.3333 16.9623 29 17.7321L11 28.1244C9.66666 28.8942 8 27.9319 8 26.3923L8 5.60769C8 4.06809 9.66667 3.10584 11 3.87564L29 14.2679Z" fill="url(#paint1_linear_5_28)"/>
</g>
<defs>
<linearGradient id="paint0_linear_5_28" x1="40" y1="16" x2="8" y2="16" gradientUnits="userSpaceOnUse">
<stop offset="1" stop-color="#2F07C2"/>
<stop stop-color="#3E76CB"/>
</linearGradient>
<linearGradient id="paint1_linear_5_28" x1="32" y1="16" x2="-6.99382e-07" y2="16" gradientUnits="userSpaceOnUse">
<stop offset="1" stop-color="#4411FF"/>
<stop stop-color="#70A9FF"/>
</linearGradient>
</defs>
</svg>
